<svg width="84" height="115" viewBox="0 0 84 115" fill="none" xmlns="http://www.w3.org/2000/svg">
<path d="M2 29.4716L42.0692 2L82.1382 29.4716V84.8913L42.0692 112.362L2 84.8913V29.4716Z" fill="#F0F3F8" stroke="#387EE1" stroke-width="3"/>
<path d="M72.5 37.5L41.6791 17.1813L10.0692 37.9313V79.4313L41.6791 100.181" stroke="#387EE1"/>
<path d="M11.3973 47.804L34.3973 67.804" stroke="white"/>
<path d="M10.361 44.7753L42.361 67.7753" stroke="#387EE1"/>
<path d="M10 62L47 58" stroke="#387EE1"/>
<path d="M30.288 45.6188C31.6213 45.598 32.715 45.8375 33.5692 46.3375C34.4442 46.8375 35.1525 47.4313 35.6942 48.1188C36.2359 48.8063 36.6525 49.5042 36.9442 50.2125C37.2359 50.9001 37.465 51.4417 37.6317 51.8375C37.6734 51.9417 37.7567 52.0771 37.8817 52.2438C37.9859 52.3896 38.1317 52.5667 38.3192 52.7751C38.5275 52.9625 38.788 53.1813 39.1004 53.4313C38.4546 53.4521 37.8817 53.473 37.3817 53.4938C36.8817 53.4938 36.4546 53.5042 36.1004 53.5251C35.7046 53.5459 35.3504 53.5667 35.038 53.5875C34.7254 53.6084 34.34 53.6396 33.8817 53.6813C33.465 53.723 32.9546 53.7646 32.3504 53.8063C31.7463 53.848 31.0067 53.9105 30.1317 53.9938C30.6525 53.3688 31.0588 52.8167 31.3504 52.3375C31.663 51.8375 31.8921 51.4001 32.038 51.0251C32.2046 50.6292 32.2984 50.2855 32.3192 49.9938C32.3609 49.7021 32.3504 49.4521 32.288 49.2438C32.163 48.7646 31.84 48.4209 31.3192 48.2125C29.8192 47.7959 28.5067 48.1292 27.3817 49.2125C26.2775 50.2751 25.4859 52.0251 25.0067 54.4625C24.7775 55.6709 24.5588 56.9313 24.3504 58.2438C24.163 59.5355 24.09 60.723 24.1317 61.8063C24.1734 62.8688 24.3817 63.7334 24.7567 64.4001C25.1317 65.0667 25.7775 65.3792 26.6942 65.3375C27.59 65.2959 28.3504 65.1501 28.9754 64.9001C29.6004 64.6292 30.1004 64.3167 30.4754 63.9625C30.8504 63.5875 31.1109 63.1917 31.2567 62.7751C31.4234 62.3375 31.4859 61.9313 31.4442 61.5563C31.3609 61.2646 31.1421 60.9521 30.788 60.6188C30.4754 60.3271 30.0067 60.0042 29.3817 59.6501C28.7567 59.2751 27.8609 58.8896 26.6942 58.4938C27.7984 58.4313 28.7046 58.3896 29.413 58.3688C30.1421 58.3271 30.715 58.2855 31.1317 58.2438C31.6317 58.2021 32.0171 58.1709 32.288 58.1501C32.538 58.1292 32.9025 58.1084 33.3817 58.0875C33.7984 58.0667 34.3296 58.0563 34.9754 58.0563C35.6421 58.0563 36.4754 58.0459 37.4754 58.0251C37.1004 58.4001 36.8088 58.7438 36.6004 59.0563C36.4963 59.223 36.4025 59.3688 36.3192 59.4938C36.2359 59.7021 36.2046 60.1292 36.2254 60.7751C36.2254 61.3167 36.2671 62.1188 36.3504 63.1813C36.4338 64.223 36.59 65.6501 36.8192 67.4625L32.663 68.0251L32.8504 63.8063C32.3713 64.9521 31.7671 65.8063 31.038 66.3688C30.3296 66.9313 29.6525 67.3271 29.0067 67.5563C28.2359 67.8271 27.4338 67.9521 26.6004 67.9313C25.5171 67.8271 24.4338 67.5771 23.3504 67.1813C22.2671 66.7855 21.3088 66.1813 20.4754 65.3688C19.6421 64.5355 18.9963 63.4625 18.538 62.1501C18.1004 60.8375 17.965 59.2125 18.1317 57.2751C18.3192 55.3375 18.7775 53.6501 19.5067 52.2125C20.2567 50.7542 21.1838 49.5459 22.288 48.5875C23.3921 47.6292 24.6317 46.9105 26.0067 46.4313C27.4025 45.9313 28.8296 45.6605 30.288 45.6188ZM36.3817 46.2125C37.0692 46.2959 37.6942 46.3584 38.2567 46.4001C38.7984 46.4417 39.2671 46.4834 39.663 46.5251C40.1213 46.5667 40.5275 46.598 40.8817 46.6188C41.2567 46.6188 41.7359 46.6084 42.3192 46.5875C42.8192 46.5667 43.4546 46.5355 44.2254 46.4938C44.9963 46.4521 45.9442 46.3792 47.0692 46.2751C46.5275 46.5875 46.0796 46.9001 45.7254 47.2125C45.3921 47.5251 45.1317 47.8063 44.9442 48.0563C44.715 48.348 44.5484 48.6396 44.4442 48.9313C44.3817 49.3271 44.4025 50.098 44.5067 51.2438C44.5484 51.723 44.6109 52.3167 44.6942 53.0251C44.7984 53.7125 44.9234 54.5355 45.0692 55.4938C45.2359 56.4313 45.4338 57.5146 45.663 58.7438C45.913 59.973 46.1942 61.3688 46.5067 62.9313C46.9234 61.7438 47.2671 60.6917 47.538 59.7751C47.8088 58.8375 48.038 58.0355 48.2254 57.3688C48.4338 56.6188 48.6109 55.9521 48.7567 55.3688C48.9025 54.7646 49.0796 53.9834 49.288 53.0251C49.4546 52.2125 49.6734 51.1605 49.9442 49.8688C50.215 48.5771 50.5484 46.9834 50.9442 45.0875L52.0692 45.2438C52.1734 46.723 52.2775 48.0251 52.3817 49.1501C52.5067 50.2751 52.6109 51.2334 52.6942 52.0251C52.7775 52.9417 52.8609 53.7334 52.9442 54.4001C53.0275 55.0042 53.1525 55.7021 53.3192 56.4938C53.465 57.1605 53.6525 57.9834 53.8817 58.9625C54.1109 59.9209 54.413 61.0042 54.788 62.2125C55.163 60.7334 55.4963 59.4105 55.788 58.2438C56.1004 57.0771 56.3609 56.0459 56.5692 55.1501C56.7984 54.2542 56.9859 53.4834 57.1317 52.8375C57.2984 52.1917 57.4338 51.6501 57.538 51.2125C57.7671 50.1709 57.9025 49.473 57.9442 49.1188C57.9234 48.723 57.8296 48.3375 57.663 47.9625C57.5171 47.6292 57.288 47.2646 56.9754 46.8688C56.663 46.473 56.2046 46.0875 55.6004 45.7125C56.8713 45.7542 57.9025 45.7855 58.6942 45.8063C59.5067 45.8063 60.1525 45.8063 60.6317 45.8063H61.8817H63.0067C63.4234 45.8063 63.965 45.8063 64.6317 45.8063C65.3192 45.7855 66.1942 45.7542 67.2567 45.7125C66.34 46.1917 65.6004 46.6292 65.038 47.0251C64.4754 47.4209 64.038 47.7542 63.7254 48.0251C63.3504 48.3584 63.0796 48.6396 62.913 48.8688C62.7463 49.2855 62.4754 50.223 62.1004 51.6813C61.9338 52.3063 61.7463 53.0875 61.538 54.0251C61.3296 54.9417 61.0796 56.0459 60.788 57.3375C60.5171 58.6292 60.2046 60.1396 59.8504 61.8688C59.4963 63.5771 59.1004 65.5355 58.663 67.7438L53.2567 67.1813L50.9442 57.4625C50.59 59.2334 50.3088 60.6709 50.1004 61.7751C49.8921 62.8584 49.7359 63.7021 49.6317 64.3063C49.5067 65.0355 49.4338 65.5667 49.413 65.9001C49.3921 66.1917 49.3713 66.473 49.3504 66.7438C49.3296 66.973 49.2984 67.223 49.2567 67.4938C49.2359 67.7646 49.2046 68.0146 49.163 68.2438H43.6317C43.09 65.8688 42.6004 63.7751 42.163 61.9625C41.7463 60.1292 41.3713 58.5251 41.038 57.1501C40.7046 55.7751 40.413 54.6084 40.163 53.6501C39.9338 52.6917 39.7254 51.8896 39.538 51.2438C39.1213 49.7438 38.8192 48.8167 38.6317 48.4625C38.4859 48.2959 38.2984 48.098 38.0692 47.8688C37.8817 47.6813 37.6525 47.4521 37.3817 47.1813C37.09 46.8896 36.7567 46.5667 36.3817 46.2125Z" fill="#387EE1"/>
<path d="M72 37L67 46" stroke="#387EE1"/>
<path d="M47.0692 68.1813C47.0692 80.3093 47.8905 86.1813 60.0273 86.1813C69.0247 86.1813 67.9409 91.164 63.5 97.5" stroke="#387EE1" stroke-width="3" stroke-linecap="round"/>
<path d="M32.8076 71.048L33.0696 77.099L39.894 79.4683L33.2316 80.8383L33.4937 86.8893L29.114 81.6853L22.4516 83.0553L26.4072 78.4693L22.0275 73.2649L28.8519 75.6345L32.8076 71.048Z" fill="#387EE1"/>
<path d="M43.5692 24.1813L45.7021 29.7092H52.6042L47.0203 33.1256L49.1532 38.6534L43.5692 35.237L37.9852 38.6534L40.1181 33.1256L34.5342 29.7092H41.4363L43.5692 24.1813Z" fill="#387EE1"/>
<path d="M71.5692 51.1813L72.8042 56.3637H76.8002L73.5672 59.5666L74.8022 64.7489L71.5692 61.546L68.3364 64.7489L69.5712 59.5666L66.3384 56.3637H70.3342L71.5692 51.1813Z" fill="#387EE1"/>
<path d="M41 100L73 74" stroke="#387EE1"/>
<path d="M58 67L72.5 74" stroke="#387EE1"/>
</svg>
